<?xml version="1.0" encoding="utf-8"?>
<!-- Generator: Adobe Illustrator 14.0.0, SVG Export Plug-In  -->
<!DOCTYPE svg PUBLIC "-//W3C//DTD SVG 1.1//EN" "http://www.w3.org/Graphics/SVG/1.1/DTD/svg11.dtd" [
	<!ENTITY ns_flows "http://ns.adobe.com/Flows/1.0/">
]>
<svg version="1.1"
	 xmlns="http://www.w3.org/2000/svg" xmlns:xlink="http://www.w3.org/1999/xlink" xmlns:a="http://ns.adobe.com/AdobeSVGViewerExtensions/3.0/"
	 x="0px" y="0px" width="595px" height="842px" viewBox="0 4.576 595 842" enable-background="new 0 4.576 595 842"
	 xml:space="preserve">
<defs>
</defs>
<path fill="#404040" d="M49.914,330.909c53.055-45.561,94.965-81.58,208.665-17.333c54.621,30.857,98.683,42.506,135.363,42.5
	c64.224,0,105.83-35.729,141.819-66.653c12.832-11.017,14.483-30.578,3.688-43.689c-10.798-13.112-29.954-14.807-42.786-3.771
	c-53.048,45.578-94.953,81.585-208.689,17.326c-150.243-84.872-220.612-24.414-277.158,24.153
	c-12.827,11.022-14.485,30.584-3.687,43.696C17.921,340.243,37.076,341.938,49.914,330.909z M496.663,397.032
	c-53.048,45.567-94.953,81.581-208.689,17.328c-150.243-84.878-220.612-24.421-277.158,24.152
	c-12.827,11.029-14.485,30.591-3.687,43.685c10.792,13.111,29.953,14.806,42.785,3.777c53.055-45.567,94.965-81.581,208.665-17.338
	c54.621,30.857,98.683,42.51,135.363,42.51c64.224,0,105.83-35.733,141.819-66.651c12.832-11.028,14.483-30.591,3.688-43.691
	C528.657,387.681,509.502,385.997,496.663,397.032z M496.663,552.085c-53.048,45.573-94.953,81.579-208.689,17.332
	C137.731,484.54,67.362,544.999,10.816,593.571c-12.827,11.021-14.485,30.589-3.687,43.701
	c10.792,13.093,29.953,14.795,42.785,3.765c53.055-45.577,94.959-81.573,208.665-17.344c54.621,30.869,98.683,42.512,135.363,42.512
	c64.224,0,105.83-35.734,141.819-66.646c12.832-11.023,14.483-30.596,3.688-43.701C528.651,542.75,509.502,541.068,496.663,552.085z
	"/>
<path fill="#202020" stroke="#FFFFFF" stroke-width="10" d="M504.126,5c56.316,0,84.467,38.411,84.467,82.33
	c0,54.853-48.898,105.593-112.625,105.593c-53.355,0-84.48-31.556-83.001-83.659C392.967,65.354,430.014,5,504.126,5z
	 M330.711,846.042c-44.463,0-77.071-27.435-45.944-148.15l51.05-214.102c8.89-34.29,10.345-47.999,0-47.999
	c-13.354,0-71.077,23.682-105.214,47.013l-22.204-37.048C316.583,353.864,441.048,299.97,494.388,299.97
	c44.448,0,51.875,53.499,29.646,135.811L465.59,660.842c-10.379,39.776-5.912,53.485,4.432,53.485
	c13.34,0,57.082-16.51,100.051-50.808l25.207,34.306C490.048,804.831,375.178,846.042,330.711,846.042z"/>
</svg>
